<svg xmlns="http://www.w3.org/2000/svg" version="1.1" xmlns:xlink="http://www.w3.org/1999/xlink" width="512" height="512" x="0" y="0" viewBox="0 0 64 64" style="enable-background:new 0 0 512 512" xml:space="preserve" class=""><g><linearGradient id="a"><stop offset="0" stop-color="#ffffd5"/><stop offset="1" stop-color="#ffe59a"/></linearGradient><linearGradient xlink:href="#a" id="b" x1="0" x2="64" y1="32" y2="32" gradientUnits="userSpaceOnUse"/><linearGradient xlink:href="#a" id="c" x1="4" x2="60" y1="32" y2="32" gradientUnits="userSpaceOnUse"/><path d="M36.06 28.91a8.154 8.154 0 0 0 4.1-7.07c0-4.5-3.66-8.16-8.16-8.16s-8.16 3.66-8.16 8.16c0 3.02 1.65 5.66 4.1 7.07-4.48 1.45-8.19 5.38-8.45 11.8v7.42c0 1.21.98 2.19 2.19 2.19h20.64c1.21 0 2.19-.98 2.19-2.19v-7.42c-.26-6.42-3.97-10.35-8.45-11.8zm-10.42-7.07c0-3.5 2.85-6.35 6.35-6.35s6.35 2.85 6.35 6.35-2.84 6.35-6.34 6.35-6.36-2.85-6.36-6.35zm17.07 26.29c0 .21-.17.39-.39.39H21.68a.39.39 0 0 1-.39-.39v-7.42C21.29 34.8 26.09 30 32 30s10.71 4.8 10.71 10.71zM20.01 32.16c.4-.84-.46-1.44-1.62-1.85a6.95 6.95 0 0 0 3.15-5.81c0-3.83-3.12-6.95-6.95-6.95s-6.95 3.12-6.95 6.95c0 2.45 1.28 4.6 3.2 5.84-4 1.52-6.84 5.37-6.84 9.89v6.18c0 1.09.89 1.98 1.98 1.98h10.4c1.18 0 1.18-1.81 0-1.81H5.98c-.09 0-.17-.08-.17-.17v-6.18c0-4.83 3.91-8.76 8.73-8.78h.07c1.45.01 2.89.37 4.17 1.07.44.24.99.08 1.23-.36zm-5.39-2.52h-.06a5.147 5.147 0 0 1-5.12-5.14c0-2.84 2.31-5.15 5.15-5.15s5.14 2.31 5.14 5.15c0 2.83-2.29 5.12-5.11 5.14zM60 40.23c.09-4.63-2.96-8.35-6.87-9.86a6.928 6.928 0 0 0 3.24-5.87c0-3.83-3.12-6.95-6.95-6.95s-6.95 3.12-6.95 6.95c0 2.44 1.26 4.58 3.17 5.82-.43.17-.86.37-1.28.61-1.04.57-.17 2.15.87 1.58 3.33-1.86 7.74-1.24 10.41 1.5a8.737 8.737 0 0 1 2.57 6.21v6.18c0 .09-.08.17-.17.17h-10.4c-1.18.01-1.18 1.8 0 1.81h10.4c1.09 0 1.98-.89 1.98-1.98-.02.01-.02-6.17-.02-6.17zM49.47 29.64h-.08c-2.82-.02-5.11-2.32-5.11-5.14 0-2.84 2.31-5.15 5.14-5.15 2.84 0 5.15 2.31 5.15 5.15a5.163 5.163 0 0 1-5.1 5.14z" fill="#000000" opacity="1" data-original="#000000" class=""/></g></svg>