<svg xmlns="http://www.w3.org/2000/svg" version="1.1" xmlns:xlink="http://www.w3.org/1999/xlink" width="512" height="512" x="0" y="0" viewBox="0 0 32 32" style="enable-background:new 0 0 512 512" xml:space="preserve" class=""><g><path d="M5.377 23.322c.67 3.215 3.28 5.824 6.493 6.493a8.79 8.79 0 0 0 1.79.185c1.945 0 3.83-.656 5.355-1.895a8.45 8.45 0 0 0 3.132-6.581V9.918a9.13 9.13 0 0 0 4.661 1.282V6.66A4.666 4.666 0 0 1 22.148 2h-4.54c0 .041.006.08.007.122h-.006v19.402c0 1.191-.531 2.306-1.458 3.06-.938.762-2.132 1.043-3.356.787a3.889 3.889 0 0 1-2.974-2.975c-.256-1.224.024-2.416.788-3.355a3.927 3.927 0 0 1 3.06-1.458v-4.538a8.447 8.447 0 0 0-6.581 3.132c-1.619 1.992-2.242 4.596-1.71 7.145z" fill="#000000" opacity="1" data-original="#000000" class=""/></g></svg>