<svg xmlns="http://www.w3.org/2000/svg" version="1.1" xmlns:xlink="http://www.w3.org/1999/xlink" width="512" height="512" x="0" y="0" viewBox="0 0 100 100" style="enable-background:new 0 0 512 512" xml:space="preserve" class=""><g><g fill="#fe9901"><path d="M91.345 36.58c-3.096 0-5.692 2.497-5.692 5.693v8.29c0 19.673-15.98 35.652-35.653 35.652S14.347 70.236 14.347 50.562c0-19.574 15.98-35.553 35.553-35.553h7.59c3.096 0 5.693-2.496 5.693-5.692s-2.497-5.692-5.693-5.692H50c-25.966-.1-46.938 20.972-46.938 46.937C3.062 76.428 24.134 97.5 50 97.5s46.938-21.072 46.938-46.938v-8.289c0-3.096-2.497-5.692-5.593-5.692z" fill="#fe9901" opacity="1" data-original="#fe9901" class=""/><path d="M40.113 36.58c-1.598-1.897-4.394-2.296-6.591-.998-2.397 1.498-3.196 4.694-1.698 7.09l12.484 21.572c.499.8 1.198 1.498 1.997 2.097 3.096 2.098 7.29 1.299 9.487-1.797l.2-.3 35.952-53.629c1.498-2.197 1.099-5.293-1.098-6.99-2.197-1.798-5.493-1.399-7.19.898L49.9 47.666z" fill="#fe9901" opacity="1" data-original="#fe9901" class=""/></g></g></svg>